<?xml version="1.0" standalone="no"?>
<!DOCTYPE svg PUBLIC "-//W3C//DTD SVG 20010904//EN"
 "http://www.w3.org/TR/2001/REC-SVG-20010904/DTD/svg10.dtd">
<svg version="1.0" xmlns="http://www.w3.org/2000/svg"
 width="700.000000pt" height="700.000000pt" viewBox="0 0 700.000000 700.000000"
 preserveAspectRatio="xMidYMid meet">
<metadata>
Created by potrace 1.14, written by Peter Selinger 2001-2017
</metadata>
<g transform="translate(0.000000,700.000000) scale(0.100000,-0.100000)"
fill="#000000" stroke="none">
<path d="M0 3500 l0 -3501 2518 4 c1384 1 2531 6 2547 10 17 3 44 8 60 11 292
43 550 134 797 279 322 190 612 484 791 802 112 200 212 466 242 645 3 19 8
42 10 50 2 8 7 38 11 65 3 28 9 59 12 70 4 11 8 1155 9 2543 l4 2522 -3501 0
-3500 0 0 -3500z"/>
</g>
</svg>
